<svg xmlns="http://www.w3.org/2000/svg" width="33" height="28" viewBox="0 0 33 28">
  <path fill="#FFF" d="M11.8745125,19.5507679 C11.7334557,19.2348644 11.6533719,18.873149 11.6533719,18.4887736 C11.6533719,17.2542602 12.4794587,16.2534894 13.4984885,16.2534894 C14.5175183,16.2534894 15.3436052,17.2542602 15.3436052,18.4887736 C15.3436052,19.4179757 14.875596,20.2147538 14.2095661,20.5520277 C15.0110016,20.5464532 15.8750394,20.2673832 16.4095043,19.6273478 C16.9494249,18.9807789 17.1887218,17.8713728 17.1887218,16.8123105 C17.1887218,14.7468745 15.8439293,13.072508 14.1850435,13.072508 C12.5261578,13.072508 11.1813652,14.7468745 11.1813652,16.8123105 C11.1813652,17.7881407 11.3202912,18.8047898 11.8119518,19.4706978 C11.831967,19.4978065 11.8528351,19.5245002 11.8745125,19.5507679 Z M9.0732096,7.84364524 C9.96246265,6.6018459 11.7492556,4.59695574 13.5884076,3.59549026 C15.4275596,2.59402479 18.1160738,1.75824658 21.9082468,2.0639884 C25.70042,2.36973021 27.6933101,3.93903839 28.6783783,4.72053114 C29.6634467,5.50202389 30.9278568,7.20632885 31.6578941,9.26736631 C32.3879314,11.3284036 33.0064133,13.4934799 32.9999498,16.7805357 C32.9933843,20.0675916 32.3035132,22.7274316 30.6055389,24.2602178 C30.5626245,24.2989573 30.5192645,24.336995 30.4754776,24.3743302 C28.7867692,25.8142166 26.4630383,26.2091499 24.5710861,25.5155504 C22.630077,24.8039662 22.2005974,24.1210352 21.634015,22.7061326 C21.0674325,21.29123 20.8338509,19.1148579 20.8369015,17.5755107 C20.8399524,16.0361636 20.9292667,15.8772776 20.9308243,15.0913765 C20.9323818,14.3054753 20.4316388,14.361055 20.3372846,15.0720465 C20.2429303,15.7830379 20.1873701,16.6589359 20.1863098,17.1939061 C20.1849617,17.8741744 20.2277773,19.6394168 20.3263427,20.5931188 C20.4249079,21.5468206 20.7266339,23.0002637 21.029757,23.6962431 C21.3328801,24.3922226 21.9123407,25.2331206 21.9123407,25.2331206 C21.9123407,25.2331206 20.6020986,25.926082 18.028007,25.9769492 C15.4539153,26.0278164 14.0158374,26.0082556 11.8709065,25.7764292 C9.72597577,25.5446028 7.12445012,24.9808618 5.3944712,24.3095568 C3.66449228,23.6382518 2.79132499,23.0184174 1.56715935,21.8999959 C0.342993709,20.7815742 -0.639915592,19.084636 0.512847201,18.2955512 C1.66560998,17.5064666 2.04576458,18.1984802 2.57997516,18.629908 C2.9278343,18.9108385 3.61184856,19.6181297 4.657553,19.9851978 C5.70325745,20.3522661 6.02283086,20.3506916 6.57697855,19.9814414 C7.34812108,19.4675993 6.9846178,16.7031816 6.98644548,16.0783861 C6.98827316,15.4535905 6.90376663,13.2992113 7.36351749,11.6988782 C7.82326836,10.0985452 8.18395655,9.08544457 9.0732096,7.84364524 Z"/>
</svg>
