<svg xmlns="http://www.w3.org/2000/svg" width="44" height="44" fill="none" viewBox="0 0 44 44">
  <path fill="#fff" d="M22 0A22.33 22.33 0 0 0 0 22.28 21.67 21.67 0 0 0 22 44c12.85-2.18 8.78-5.44 21.63-.52-6.66-11.71.23-12.5.37-21.76A21.67 21.67 0 0 0 22 0Zm-.15 4.52c2.54 0 4.77.33 6.65 1.02 1.25.46 2.03 1.04 2.46 1.73H31c.73.56 1.1 1.21 1.1 1.98 0 .59-.24 1.08-.7 1.47-.46.38-.96.55-1.58.55-.88 0-1.93-.51-3.12-1.58a15.73 15.73 0 0 0-3.08-2.28 5.97 5.97 0 0 0-2.9-.7c-1.43 0-2.61.27-3.53.78-.9.5-1.36 1.15-1.36 1.94 0 .54.23 1.02.62 1.5.87.68 2.66 1.8 5.51 3.38a66.36 66.36 0 0 1 7.05 4.3c.65.48 1.23 1.03 1.77 1.61l.1.11.04.04c.87.82 1.6 1.77 2.2 2.82a9.34 9.34 0 0 1 1.33 4.74c0 2.9-1.3 5.47-3.86 7.7a13.08 13.08 0 0 1-8.88 3.34c-3.1 0-5.7-.9-7.83-2.68a9.22 9.22 0 0 1-1.03-1.02 8.8 8.8 0 0 1-2.93-6.9 8.92 8.92 0 0 1 3.49-7.2 16.46 16.46 0 0 1 8.52-3.44 49.1 49.1 0 0 0-3.05-2.35 23.01 23.01 0 0 1-3.71-3.09l-.07-.07a9.28 9.28 0 0 1-.78-.77c-.65-.77-.99-1.62-.99-2.53 0-1.37.78-2.46 2.35-3.23 1.58-.8 3.64-1.17 6.17-1.17Zm2.32 15.04c-5.51.73-8.27 3.76-8.27 9.14 0 2.62.59 4.68 1.8 6.2l.04.03a6.09 6.09 0 0 0 4.22 1.77c1.9 0 3.48-.77 4.7-2.24 1.23-1.49 1.84-3.5 1.84-6.02 0-2.98-1.15-5.66-3.41-8.07-.3-.28-.6-.54-.92-.81Z"/>
</svg>
