<svg xmlns="http://www.w3.org/2000/svg" width="11" height="19" viewBox="0 0 11 19">
  <path fill="#FFF" d="M3.37507799e-14,4 L3.37507799e-14,5.83333333 L1.83333333,5.83333333 L3.66666667,5.83333333 L5.5,5.83333333 L7.33333333,5.83333333 L7.33333333,4 L5.5,4 L3.66666667,4 L1.83333333,4 L3.37507799e-14,4 L3.37507799e-14,4 Z M7.33333333,5.83333333 L7.33333333,7.66666667 L9.16666667,7.66666667 L9.16666667,5.83333333 L7.33333333,5.83333333 L7.33333333,5.83333333 Z M9.16666667,7.66666667 L9.16666667,9.5 L9.16666667,11.3333333 L9.16666667,13.1666667 L9.16666667,15 L11,15 L11,13.1666667 L11,11.3333333 L11,9.5 L11,7.66666667 L9.16666667,7.66666667 L9.16666667,7.66666667 Z M3.37507799e-14,7.66666667 L3.37507799e-14,9.5 L1.83333333,9.5 L3.66666667,9.5 L5.5,9.5 L5.5,7.66666667 L3.66666667,7.66666667 L1.83333333,7.66666667 L3.37507799e-14,7.66666667 L3.37507799e-14,7.66666667 Z M5.5,9.5 L5.5,11.3333333 L5.5,13.1666667 L5.5,15 L7.33333333,15 L7.33333333,13.1666667 L7.33333333,11.3333333 L7.33333333,9.5 L5.5,9.5 L5.5,9.5 Z M3.37507799e-14,11.3333333 L3.37507799e-14,13.1666667 L3.37507799e-14,15 L1.83333333,15 L3.66666667,15 L3.66666667,13.1666667 L3.66666667,11.3333333 L1.83333333,11.3333333 L3.37507799e-14,11.3333333 L3.37507799e-14,11.3333333 Z"/>
</svg>
