<svg xmlns="http://www.w3.org/2000/svg" width="160" height="160" fill="none" viewBox="0 0 160 160">
  <g fill="#fff">
    <path d="M80 0c4.2 0 8.2.3 12.2 1l-1.1 7.3a73 73 0 0 0-22.2 0L67.8 1c4-.6 8-.9 12.2-.9zM99 2.3l-1.8 7.3a72 72 0 0 1 20.4 8.4l4-6.4A79.5 79.5 0 0 0 99 2.3zM127.3 15.5l-4.5 6a73 73 0 0 1 15.7 15.7l6-4.5a80.5 80.5 0 0 0-17.2-17.2zM148.4 38.5l-6.4 3.9a72 72 0 0 1 8.4 20.4l7.3-1.8c-2-8-5.1-15.6-9.3-22.5zM159 67.8l-7.3 1.1a73 73 0 0 1 0 22.2l7.4 1.1a80.7 80.7 0 0 0 0-24.4zM142 117.6a72 72 0 0 0 8.4-20.4l7.3 1.8c-2 8-5.1 15.6-9.3 22.5zM138.5 122.8l6 4.5a80.5 80.5 0 0 1-17.2 17.2l-4.5-6a73 73 0 0 0 15.7-15.7zM117.6 142l4 6.4a79.5 79.5 0 0 1-22.6 9.3l-1.8-7.3a72 72 0 0 0 20.4-8.4zM91 151.7l1.2 7.4a80.7 80.7 0 0 1-24.4 0l1.1-7.4a73 73 0 0 0 22.2 0zM62.8 150.4l-1.8 7.3c-6-1.4-11.8-3.6-17.3-6.4l-7.6 1.8-1.7-7.3 10.3-2.4 2.4 1.2a72 72 0 0 0 15.7 5.8zM28.1 147.3l1.7 7.3-13 3a12 12 0 0 1-14.4-14.4l3-13 7.3 1.7-3 13a4.5 4.5 0 0 0 5.4 5.4zM14.2 125.6l-7.3-1.7 1.8-7.6c-2.8-5.5-5-11.3-6.4-17.3l7.3-1.8a72 72 0 0 0 5.8 15.7l1.2 2.4zM8.3 91 1 92.3a80.6 80.6 0 0 1 0-24.4l7.4 1.1a73 73 0 0 0 0 22.2zM9.6 62.8 2.3 61c2-8 5.1-15.6 9.3-22.5l6.4 3.9a72 72 0 0 0-8.4 20.4zM21.5 37.2l-6-4.5a80.5 80.5 0 0 1 17.2-17.2l4.5 6a73 73 0 0 0-15.7 15.7zM42.4 18l-4-6.4A79.5 79.5 0 0 1 61 2.3l1.8 7.3A72 72 0 0 0 42.4 18z"/>
    <path d="M145 80a65 65 0 0 1-96.4 57c-.9-.6-2-.7-3-.5l-28.8 6.7 6.7-28.9c.2-1 0-2-.4-2.9A65 65 0 1 1 145 80z"/>
  </g>
</svg>
