<svg xmlns="http://www.w3.org/2000/svg" width="20" height="21" viewBox="0 0 20 21">
  <path fill="#FFFFFF" d="M13.5537532,19.1417775 L11.085,20.9178129 L0.0438202128,13.0490689 L0.0438202128,6.3552375 L2.51236702,4.60663929 L6.47326915,7.39348393 L6.47326915,1.79252379 L8.94202234,0.0164468571 L11.4378117,1.79252379 L11.4378117,7.39348393 L13.2283904,6.13657179 L15.3445383,7.63948286 L17.487516,6.1093425 L19.9833053,7.88537786 L19.9833053,14.5793132 L17.487516,16.3279114 L15.3445383,14.7976671 L13.5539596,16.0820164 L13.5537532,19.1417775 Z M0.722304255,6.35502964 L2.51277979,7.639275 L4.33039468,6.35502964 L2.51277979,5.07088821 L0.722304255,6.35502964 Z M2.86528191,7.88517 L4.65575745,9.16931143 L6.47337234,7.88517 L4.68289681,6.60082071 L2.86528191,7.88517 Z M4.9813266,9.41520643 L6.79904468,10.6992439 L8.61665957,9.41520643 L6.79904468,8.131065 L4.9813266,9.41520643 Z M8.94202234,0.508216071 L7.12440745,1.7923575 L8.94202234,3.07618714 L10.7594309,1.7923575 L8.94202234,0.508216071 Z M8.94202234,3.568185 L7.12440745,4.85232643 L8.94202234,6.13636393 L10.7324979,4.82499321 L8.94202234,3.568185 Z M8.94202234,6.60082071 L7.12440745,7.88517 L8.94202234,9.16931143 L10.7324979,7.88517 L8.94202234,6.60082071 Z M7.12461383,10.9451389 L8.94222872,12.2020511 L10.7327043,10.9179096 L8.94222872,9.6609975 L7.12461383,10.9451389 Z M9.26759149,12.4478421 L11.085,13.7319836 L12.8755787,12.4478421 L11.085,11.1639086 L9.26759149,12.4478421 Z M13.228184,6.60082071 L11.4105691,7.88517 L13.2011479,9.16931143 L15.0187628,7.88517 L13.228184,6.60082071 Z M17.487516,6.60082071 L15.6967309,7.88517 L17.487516,9.16931143 L19.3049245,7.88517 L17.487516,6.60082071 Z"/>
</svg>
