<svg xmlns="http://www.w3.org/2000/svg" width="40" height="50" viewBox="38 38 40 50">
  <path fill="#f4f4f3" fill-rule="evenodd" d="M56.886 53.48c1.623.333 2.616 1.34 1.225 2.542-2.786 2.39-5.248 4.61-6.16 7.58-.65 1.704-.987 4.177-.662 6.467.753 4.328 3.742 6.062 6.75 6.156 3.277.1 6.927-1.46 7.05-4.318 0-1.165-.104-1.593-.435-2.483 4.557-4.493 11.528-.58 10.97 6.918C74.668 83.69 66.87 88.023 58.98 88c-10.688.012-17.2-7.522-17.897-15.8-.545-8.95 7.914-19.652 15.803-18.72zm-2.952-15.307c10.388 1.248 15.484 5.963 20.39.258 7.43 4.037 2.622 14.915-5.77 15.137-6.713.21-11.41-2.52-15.913-3.233-4.372-1.037-7.116 1.19-7.6 4.176-14.113-5.512-4.857-18.13 8.894-16.337z"/>
</svg>
