<?xml version="1.0" standalone="no"?>
<!DOCTYPE svg PUBLIC "-//W3C//DTD SVG 20010904//EN"
 "http://www.w3.org/TR/2001/REC-SVG-20010904/DTD/svg10.dtd">
<svg version="1.0" xmlns="http://www.w3.org/2000/svg"
 width="700.000000pt" height="700.000000pt" viewBox="0 0 700.000000 700.000000"
 preserveAspectRatio="xMidYMid meet">
<metadata>
Created by potrace 1.11, written by Peter Selinger 2001-2013
</metadata>
<g transform="translate(0.000000,700.000000) scale(0.100000,-0.100000)"
fill="#000000" stroke="none">
<path d="M2855 5569 c-418 -29 -772 -242 -898 -542 -42 -100 -49 -224 -19
-323 44 -142 149 -271 304 -371 81 -52 215 -116 227 -109 5 3 12 22 16 43 17
90 106 208 192 256 65 35 153 57 226 57 82 0 284 -43 457 -97 419 -132 547
-163 755 -184 314 -31 530 34 718 218 138 135 222 311 234 494 13 197 -66 372
-219 484 l-60 45 -75 -70 c-136 -127 -278 -173 -466 -150 -98 12 -183 32 -467
110 -423 116 -686 156 -925 139z"/>
<path d="M3205 4293 c-280 -63 -552 -272 -757 -584 -265 -401 -347 -813 -243
-1214 119 -458 444 -813 882 -964 290 -99 686 -98 988 3 388 130 663 384 769
710 81 246 35 530 -114 709 -154 185 -377 237 -573 134 -32 -17 -77 -47 -99
-66 l-40 -36 17 -59 c23 -79 17 -205 -12 -261 -113 -216 -510 -308 -768 -178
-73 37 -185 154 -223 233 -53 109 -73 206 -72 360 0 153 15 255 58 385 59 177
143 296 355 501 84 80 157 156 164 168 34 59 -1 121 -86 151 -41 14 -195 20
-246 8z"/>
</g>
</svg>
