<svg xmlns="http://www.w3.org/2000/svg" width="330" height="330" viewBox="0 0 330 330">
  <g fill="none" fill-rule="evenodd" transform="translate(46 10)">
    <style>
      .main {
        fill: #000;
      }
      @media (prefers-color-scheme: dark) {
        .main {
          fill: #fff;
        }
      }
    </style>
    <path fill="#38EEDF" d="M115.1293,99.5384458 C124.494347,101.551924 130.219395,107.627684 122.19726,114.869143 C106.117651,129.281411 91.9110521,142.669277 86.645422,160.57864 C82.8994033,170.857978 80.9557143,185.764785 82.8287237,199.576542 C87.175519,225.681116 104.421341,236.137075 121.773183,236.702262 C140.679975,237.302773 161.742496,227.906539 162.449292,210.668336 C162.449292,203.638823 161.848515,201.060158 159.940166,195.690881 C164.357641,191.134061 169.199193,188.025533 174.111425,186.188675 C198.531227,177.145683 225.919571,199.823811 223.198407,237.408746 C217.685398,281.634627 172.733173,307.774525 127.180172,307.668552 C65.512222,307.739201 27.9460154,262.312297 23.9172783,212.399222 C20.8073759,158.459189 69.6469786,93.8865759 115.1293,99.5384458 L115.1293,99.5384458 Z M98.095517,7.23634653 C158.031817,14.7603982 187.43453,43.1963683 215.741709,8.79061073 C258.608886,33.1289752 230.867143,98.7259895 182.451618,100.068309 C143.719198,101.339979 116.613572,84.8789084 90.6388194,80.5693576 C65.4062026,74.3169766 49.5739726,87.7401675 46.7821284,105.755503 C-34.6054294,72.5154431 18.7576676,-3.60817872 98.095517,7.23634653 L98.095517,7.23634653 Z"/>
    <path fill="#EF40DB" d="M109.1293,93.5384458 C118.494347,95.5519244 124.219395,101.627684 116.19726,108.869143 C100.117651,123.281411 85.9110521,136.669277 80.645422,154.57864 C76.8994033,164.857978 74.9557143,179.764785 76.8287237,193.576542 C81.175519,219.681116 98.4213411,230.137075 115.773183,230.702262 C134.679975,231.302773 155.742496,221.906539 156.449292,204.668336 C156.449292,197.638823 155.848515,195.060158 153.940166,189.690881 C158.357641,185.134061 163.199193,182.025533 168.111425,180.188675 C192.531227,171.145683 219.919571,193.823811 217.198407,231.408746 C211.685398,275.634627 166.733173,301.774525 121.180172,301.668552 C59.512222,301.739201 21.9460154,256.312297 17.9172783,206.399222 C14.8073759,152.459189 63.6469786,87.8865759 109.1293,93.5384458 L109.1293,93.5384458 Z M92.095517,1.23634653 C152.031817,8.76039824 181.43453,37.1963683 209.741709,2.79061073 C252.608886,27.1289752 224.867143,92.7259895 176.451618,94.0683086 C137.719198,95.3399793 110.613572,78.8789084 84.6388194,74.5693576 C59.4062026,68.3169766 43.5739726,81.7401675 40.7821284,99.7555026 C-40.6054294,66.5154431 12.7576676,-9.60817872 92.095517,1.23634653 L92.095517,1.23634653 Z"/>
    <path class="main" fill="#000" d="M112.1293,96.5384458 C121.494347,98.5519244 127.219395,104.627684 119.19726,111.869143 C103.117651,126.281411 88.9110521,139.669277 83.645422,157.57864 C79.8994033,167.857978 77.9557143,182.764785 79.8287237,196.576542 C84.175519,222.681116 101.421341,233.137075 118.773183,233.702262 C137.679975,234.302773 158.742496,224.906539 159.449292,207.668336 C159.449292,200.638823 158.848515,198.060158 156.940166,192.690881 C161.357641,188.134061 166.199193,185.025533 171.111425,183.188675 C195.531227,174.145683 222.919571,196.823811 220.198407,234.408746 C214.685398,278.634627 169.733173,304.774525 124.180172,304.668552 C62.512222,304.739201 24.9460154,259.312297 20.9172783,209.399222 C17.8073759,155.459189 66.6469786,90.8865759 112.1293,96.5384458 L112.1293,96.5384458 Z M95.095517,4.23634653 C155.031817,11.7603982 184.43453,40.1963683 212.741709,5.79061073 C255.608886,30.1289752 227.867143,95.7259895 179.451618,97.0683086 C140.719198,98.3399793 113.613572,81.8789084 87.6388194,77.5693576 C62.4062026,71.3169766 46.5739726,84.7401675 43.7821284,102.755503 C-37.6054294,69.5154431 15.7576676,-6.60817872 95.095517,4.23634653 L95.095517,4.23634653 Z"/>
  </g>
</svg>
